<svg xmlns="http://www.w3.org/2000/svg" width="24" height="24" viewBox="0 0 24 24" role="img" aria-label="MD Source Graph">
  <path d="M15.8 7.15 20 5.35l-1.05 7.9-4.2 4.2" fill="none" stroke="currentColor" stroke-width="1.15" stroke-linecap="round" stroke-linejoin="round" opacity=".36"/>
  <path d="M15.8 7.15 18.95 13.25M20 5.35l-5.25 12.1" fill="none" stroke="currentColor" stroke-width="1" stroke-linecap="round" opacity=".22"/>
  <circle cx="20" cy="5.35" r="1.2" fill="currentColor" opacity=".5"/>
  <circle cx="18.95" cy="13.25" r="1.15" fill="currentColor" opacity=".42"/>
  <circle cx="14.75" cy="17.45" r="1.15" fill="currentColor" opacity=".42"/>
  <path d="M3.3 16.6V7.2h2.32l2.58 4.05 2.58-4.05h2.32v9.4h-2.38v-5.25l-1.72 2.6H7.4l-1.72-2.6v5.25H3.3Z" fill="currentColor"/>
  <path d="M13.75 16.6V7.2h3.65c2.76 0 4.62 1.9 4.62 4.7s-1.86 4.7-4.62 4.7h-3.65Zm2.45-2.06h1.1c1.36 0 2.22-1.02 2.22-2.64s-.86-2.64-2.22-2.64h-1.1v5.28Z" fill="currentColor"/>
</svg>
